<svg xmlns="http://www.w3.org/2000/svg" viewBox="0 0 29.777 28.88">
    <defs>
        <style>
            .cls-1 {
            fill: #FFCC33;
            }
        </style>
    </defs>
    <path id="Path_1069" data-name="Path 1069" class="cls-1" d="M16.131,23.967l6.159,4.619a1.6,1.6,0,0,0,2.464-1.848L22.29,19.348a1.481,1.481,0,0,1,.616-1.848l6.159-4.311a1.727,1.727,0,0,0-.924-3.079H20.75a2.046,2.046,0,0,1-1.54-1.232l-2.464-7.7c-.616-1.54-2.771-1.54-3.079,0L10.9,8.878a2.046,2.046,0,0,1-1.54,1.232h-7.7a1.674,1.674,0,0,0-.924,3.079L6.893,17.5a1.481,1.481,0,0,1,.616,1.848L5.045,26.739a1.818,1.818,0,0,0,2.771,1.848l6.159-4.619A2.63,2.63,0,0,1,16.131,23.967Z" transform="translate(0.057 -0.025)"/>
</svg>
